<svg version="1.1" xmlns="http://www.w3.org/2000/svg" xmlns:xlink="http://www.w3.org/1999/xlink" width="138.6199951171875" height="65.70352172851562"><defs></defs><g transform="translate(-72.85198211669922,21.643524169921875)"><rect fill="rgb(255,255,255)" stroke="none" x="0" y="0" width="138.6199951171875" height="65.70352172851562" fill-opacity="0" transform="translate(72.85198211669922,-21.643524169921875)"></rect><g transform="translate(69.31198501586914,33.36000061035156) rotate(0,0,0) translate(-69.31198501586914,-33.36000061035156) matrix(1,0,0,1,69.31198501586914,33.36000061035156)"><path fill="rgb(0,208,255)" fill-opacity="1" d="M17.27-43.10Q17.99-45.46 18.88-46.58Q19.76-47.71 22.50-50.06L22.50-50.06Q22.88-50.35 23.94-51.31Q25.00-52.27 25.76-52.87Q26.53-53.47 27.30-53.86L27.30-53.86Q29.56-54.86 32.92-54.98Q36.28-55.10 38.63-54.58L38.63-54.58Q43.86-53.62 45.73-49.92L45.73-49.92Q46.98-47.38 48.85-45.07L48.85-45.07Q50.87-42.62 51.40-40.13Q51.92-37.63 51.30-33.55L51.30-33.55Q50.58-29.28 50.08-28.73Q49.57-28.18 49.57-26.69L49.57-26.69Q49.57-25.49 49.00-24.34L49.00-24.34Q48.37-23.14 46.12-19.82L46.12-19.82Q42.56-14.64 39.28-12.19Q35.99-9.74 30.61-8.11L30.61-8.11Q27.06-7.06 26.48-6.58L26.48-6.58Q25.67-6.10 22.93-6.96L22.93-6.96Q20.10-7.97 19.91-7.97L19.91-7.97Q19.62-7.97 17.60-6.00L17.60-6.00Q15.88-4.46 14.15-3.89L14.15-3.89Q12.42-3.26 9.25-3.17L9.25-3.17Q7.38-3.12 6.85-3.48Q6.32-3.84 5.12-6.14L5.12-6.14Q3.54-9.41 3.54-10.51L3.54-10.51Q3.54-12.00 4.91-14.33Q6.28-16.66 7.38-17.09L7.38-17.09Q8.92-17.66 11.32-17.57Q13.72-17.47 14.68-16.75L14.68-16.75Q16.93-15.07 17.51-16.90L17.51-16.90Q17.56-17.14 17.84-17.81Q18.13-18.48 18.54-19.56Q18.95-20.64 19.19-21.46L19.19-21.46Q20.96-25.82 21.01-27.24Q21.06-28.66 19.52-30.58L19.52-30.58Q17.84-32.69 16.84-36.14L16.84-36.14Q16.31-38.50 16.33-39.50Q16.36-40.51 17.27-43.10L17.27-43.10ZM13.48-9.55Q14.10-10.27 14.03-10.68Q13.96-11.09 12.90-12.14L12.90-12.14Q11.46-13.58 10.93-13.58L10.93-13.58Q10.31-13.58 9.49-12.02Q8.68-10.46 8.92-9.65L8.92-9.65Q9.25-8.50 10.84-8.47Q12.42-8.45 13.48-9.55L13.48-9.55ZM43.28-44.26L43.28-44.26Q41.17-47.23 40.79-48.62L40.79-48.62Q40.60-49.20 40.21-49.78L40.21-49.78Q39.83-50.40 39.25-50.76Q38.68-51.12 38.10-51.12L38.10-51.12Q37.96-51.02 34.40-50.64L34.40-50.64Q32.15-50.40 31.00-49.87L31.00-49.87Q29.84-49.34 27.78-47.47L27.78-47.47Q24.85-44.98 23.65-43.34Q22.45-41.71 22.02-39.79L22.02-39.79Q21.68-38.26 22.19-36.48Q22.69-34.70 23.41-34.70L23.41-34.70Q23.89-34.70 24.42-35.59Q24.95-36.48 25.38-37.90Q25.81-39.31 25.91-40.75L25.91-40.75Q26.00-41.33 26.03-42.02Q26.05-42.72 26.05-42.96Q26.05-43.20 26.15-43.58L26.15-43.58Q26.24-43.97 26.32-44.11Q26.39-44.26 26.68-44.50Q26.96-44.74 27.20-44.90Q27.44-45.07 28.02-45.46L28.02-45.46Q29.56-46.27 30.92-46.22Q32.29-46.18 33.01-45.29Q33.73-44.40 33.11-43.20L33.11-43.20Q32.29-41.57 31.72-38.93L31.72-38.93Q30.76-35.57 29.08-32.35L29.08-32.35Q27.78-29.76 27.66-29.16Q27.54-28.56 28.36-27.98L28.36-27.98Q29.46-27.26 33.20-27.60L33.20-27.60Q36.08-27.89 37.74-27.41Q39.40-26.93 39.40-25.82L39.40-25.82Q39.40-24.58 37.60-24.19Q35.80-23.81 31.67-24.05L31.67-24.05Q30.32-24.10 29.65-24.14L29.65-24.14Q28.98-24.19 28.16-24.14L28.16-24.14Q27.30-24.10 27.06-24.10L27.06-24.10Q26.72-24.05 26.24-23.81Q25.76-23.57 25.64-23.35Q25.52-23.14 25.28-22.56L25.28-22.56Q25.04-22.03 24.90-21.55L24.90-21.55Q24.80-21.12 24.61-20.16L24.61-20.16Q23.89-17.23 22.74-15.36L22.74-15.36Q21.68-13.54 22.12-12.38L22.12-12.38Q22.26-11.66 22.72-11.50Q23.17-11.33 24.52-11.57L24.52-11.57Q26.82-11.90 28.12-11.90L28.12-11.90Q29.70-11.90 31.33-13.54L31.33-13.54Q32.87-15.07 34.74-15.89L34.74-15.89Q36.52-16.66 36.52-17.04Q36.52-17.42 39.49-20.78L39.49-20.78Q42.08-23.81 43.26-26.23Q44.44-28.66 45.30-33.17L45.30-33.17Q46.21-37.30 45.85-39.38Q45.49-41.47 43.28-44.26ZM59.15-34.66L59.15-34.66Q57.80-34.32 56.51-35.62L56.51-35.62Q55.60-36.53 55.55-36.82Q55.50-37.10 56.22-37.68L56.22-37.68Q57.23-38.40 58.79-38.40Q60.35-38.40 60.92-37.68L60.92-37.68Q61.55-36.86 61.00-35.90Q60.44-34.94 59.15-34.66ZM67.69-11.66L67.69-11.66Q68.03-11.09 67.72-10.56Q67.40-10.03 65.96-8.83L65.96-8.83Q63.71-6.91 60.64-5.33L60.64-5.33Q58.33-4.18 55.86-4.39Q53.39-4.61 51.20-5.81Q49.02-7.01 47.44-8.93L47.44-8.93Q45.18-11.62 46.09-16.08L46.09-16.08Q46.19-16.42 46.48-18.38Q46.76-20.35 47.08-21.86Q47.39-23.38 47.77-23.86L47.77-23.86Q48.20-24.38 49.19-24.58Q50.17-24.77 51.23-24.60Q52.28-24.43 53.24-23.98Q54.20-23.52 54.56-22.75Q54.92-21.98 54.54-21.02L54.54-21.02Q53.44-18.72 53.44-17.81L53.44-17.81Q53.44-16.94 52.48-15.65L52.48-15.65Q51.66-14.69 51.49-13.32Q51.32-11.95 51.95-11.52L51.95-11.52Q52.48-11.33 52.48-10.32L52.48-10.32Q52.48-9.46 53.72-8.35L53.72-8.35Q54.59-7.54 55.09-7.44Q55.60-7.34 56.94-7.68L56.94-7.68Q58.91-8.40 61.98-10.61L61.98-10.61Q64.43-12.38 65.70-12.62Q66.97-12.86 67.69-11.66ZM88.02-11.33L88.02-11.33Q89.12-12.10 89.89-11.83Q90.66-11.57 90.56-10.22L90.56-10.22Q90.52-9.89 90.35-9.53Q90.18-9.17 89.89-8.88Q89.60-8.59 89.34-8.35Q89.08-8.11 88.64-7.85Q88.21-7.58 87.92-7.44Q87.64-7.30 87.18-7.06Q86.72-6.82 86.58-6.72L86.58-6.72Q85.38-6.10 84.08-5.71L84.08-5.71Q84.04-5.66 82.91-4.97Q81.78-4.27 80.34-3.43Q78.90-2.59 77.99-2.30L77.99-2.30Q76.74-1.87 75.40-1.63Q74.05-1.39 72.56-1.32Q71.08-1.25 69.71-1.63Q68.34-2.02 67.43-2.78L67.43-2.78Q66.32-3.79 65.63-5.54Q64.93-7.30 64.72-9.34Q64.50-11.38 64.50-13.15Q64.50-14.93 64.64-16.56L64.64-16.56Q64.69-16.80 65.20-20.66Q65.70-24.53 66.16-28.25L66.16-28.25L66.61-31.97Q66.04-32.30 64.45-32.45L64.45-32.45Q63.49-32.50 62.48-32.45L62.48-32.45Q60.13-32.45 59.17-32.59L59.17-32.59Q58.98-32.64 58.62-32.64Q58.26-32.64 57.90-32.64Q57.54-32.64 57.18-32.64Q56.82-32.64 56.60-32.71Q56.39-32.78 56.34-32.93L56.34-32.93Q56.24-33.70 56.96-34.03L56.96-34.03Q57.01-34.08 57.61-34.44Q58.21-34.80 58.86-35.14Q59.51-35.47 60.61-35.74Q61.72-36.00 62.87-35.95L62.87-35.95Q66.47-35.62 67.36-35.74Q68.24-35.86 69.11-36.77L69.11-36.77Q70.40-37.97 72.56-43.06L72.56-43.06Q72.66-43.25 72.85-43.63L72.85-43.63Q73.67-45.55 74.20-46.66Q74.72-47.76 75.68-49.46Q76.64-51.17 77.80-52.32Q78.95-53.47 80.20-54.10L80.20-54.10Q84.23-56.02 84.23-53.86L84.23-53.86Q84.23-52.61 82.36-48.24L82.36-48.24Q81.83-47.04 81.59-46.37L81.59-46.37Q81.30-45.50 81.11-44.30Q80.92-43.10 80.20-41.90L80.20-41.90Q79.04-39.89 78.28-38.50L78.28-38.50Q77.36-36.86 77.60-36.58L77.60-36.58Q77.84-36.19 82.45-35.71L82.45-35.71Q85.67-35.38 86.36-35.14Q87.06-34.90 86.96-34.22L86.96-34.22Q86.87-33.31 85.91-33.46L85.91-33.46Q85.52-33.50 84.37-33.50L84.37-33.50Q83.22-33.46 81.78-33.36L81.78-33.36Q80.34-33.26 78.80-33.07L78.80-33.07Q77.32-32.88 76.31-32.78L76.31-32.78Q75.78-32.69 74.92-29.71Q74.05-26.74 73.02-22.49Q71.99-18.24 71.51-16.80L71.51-16.80Q69.06-9.46 72.13-6.72L72.13-6.72Q73.52-5.47 74.72-5.52L74.72-5.52Q75.44-5.52 76.31-6.05L76.31-6.05Q76.45-6.24 77.29-6.62Q78.13-7.01 79.02-7.32Q79.91-7.63 80.84-7.97Q81.78-8.30 81.83-8.30L81.83-8.30Q85.67-9.84 88.02-11.33ZM112.09-14.59L112.09-14.59Q113.15-15.50 113.94-15.34Q114.73-15.17 114.73-13.78L114.73-13.78Q114.73-13.49 114.64-13.15Q114.54-12.82 114.37-12.55Q114.20-12.29 113.94-12.00Q113.68-11.71 113.41-11.50Q113.15-11.28 112.81-11.04Q112.48-10.80 112.24-10.63Q112.00-10.46 111.66-10.22Q111.32-9.98 111.18-9.89L111.18-9.89Q110.03-9.12 108.78-8.59L108.78-8.59Q108.68-8.54 108.30-8.35L108.30-8.35Q107.00-7.01 106.00-6.53L106.00-6.53Q105.04-6.14 103.45-6.05L103.45-6.05Q101.82-5.57 101.20-6.14L101.20-6.14Q101.00-6.14 100.07-6.24Q99.13-6.34 98.80-6.36Q98.46-6.38 97.76-6.38Q97.07-6.38 96.56-6.24Q96.06-6.10 95.58-5.86L95.58-5.86Q94.96-5.47 94.00-5.52Q93.04-5.57 90.68-5.90L90.68-5.90Q89.00-6.14 87.85-6.24L87.85-6.24Q87.61-6.24 87.32-6.24Q87.04-6.24 86.70-6.26Q86.36-6.29 86.17-6.43L86.17-6.43Q85.64-6.77 84.88-9.02L84.88-9.02Q84.44-10.32 84.35-11.71L84.35-11.71Q84.25-12.29 84.35-12.62L84.35-12.62Q84.59-13.82 85.12-14.11L85.12-14.11Q85.31-14.21 85.84-14.30Q86.36-14.40 86.60-14.64L86.60-14.64Q87.04-14.98 87.32-15.74L87.32-15.74Q87.61-16.56 87.66-17.42L87.66-17.42Q87.71-18.19 87.80-18.43L87.80-18.43Q88.00-18.72 88.55-19.06Q89.10-19.39 89.15-19.44L89.15-19.44Q89.72-19.92 90.16-20.74L90.16-20.74Q90.35-21.17 90.92-23.42L90.92-23.42Q91.45-25.20 91.79-27.07L91.79-27.07Q92.12-28.90 92.27-30.19L92.27-30.19Q92.51-33.17 92.92-33.70Q93.32-34.22 94.45-34.20Q95.58-34.18 96.40-33.55L96.40-33.55Q96.78-33.31 97.09-32.76Q97.40-32.21 97.55-31.78Q97.69-31.34 97.91-30.58Q98.12-29.81 98.22-29.57L98.22-29.57Q99.08-26.98 99.47-24.77L99.47-24.77Q99.61-23.90 99.80-22.25Q100.00-20.59 100.24-19.25Q100.48-17.90 100.91-16.75L100.91-16.75Q101.68-14.64 101.44-12.96L101.44-12.96Q101.29-11.90 101.29-10.99Q101.29-10.08 101.89-9.50Q102.49-8.93 103.74-9.02L103.74-9.02Q104.27-9.07 104.80-9.26Q105.32-9.46 105.68-9.65Q106.04-9.84 106.60-10.27Q107.15-10.70 107.34-10.87Q107.53-11.04 108.16-11.62L108.16-11.62Q108.88-12.29 110.39-13.37Q111.90-14.45 112.09-14.59ZM94.57-11.33Q96.73-11.81 97.12-13.46Q97.50-15.12 96.30-18.82L96.30-18.82Q95.10-22.32 94.81-22.32L94.81-22.32Q94.48-22.32 94.24-20.98L94.24-20.98Q93.95-19.73 93.52-19.15L93.52-19.15Q92.94-18.34 91.69-15.67Q90.44-13.01 90.64-12.72L90.64-12.72Q90.88-12.38 91.60-12.00Q92.32-11.62 93.16-11.42Q94.00-11.23 94.57-11.33L94.57-11.33ZM139.52-12.86L139.52-12.86Q140.58-13.78 141.37-13.61Q142.16-13.44 142.16-12.10L142.16-12.10Q142.16-11.66 141.97-11.23Q141.78-10.80 141.54-10.49Q141.30-10.18 140.82-9.77Q140.34-9.36 140.08-9.17Q139.81-8.98 139.26-8.62Q138.71-8.26 138.56-8.16L138.56-8.16Q138.56-8.16 138.52-8.16L138.52-8.16Q138.23-7.63 137.17-7.01L137.17-7.01Q136.07-6.38 135.06-6.24L135.06-6.24Q134.00-5.71 133.28-5.33L133.28-5.33Q133.04-4.42 129.35-1.34L129.35-1.34Q127.91-0.14 126.95 0.72Q125.99 1.58 124.57 3.07Q123.16 4.56 122.39 6.02Q121.62 7.49 121.57 8.78L121.57 8.78Q121.57 9.36 119.94 10.13L119.94 10.13Q118.88 10.70 118.38 10.70Q117.88 10.70 116.72 10.18L116.72 10.18Q115.24 9.46 114.80 8.06L114.80 8.06Q114.56 6.67 114.80 5.76Q115.04 4.85 115.88 3.86Q116.72 2.88 117.59 2.21Q118.45 1.54 119.36 0.60Q120.28-0.34 120.66-1.15L120.66-1.15Q121.43-2.78 122.00-3.36L122.00-3.36Q122.68-3.98 122.53-5.11Q122.39-6.24 121.57-6.67L121.57-6.67Q120.66-7.20 118.74-6.38L118.74-6.38Q115.62-5.14 113.44-6.77Q111.25-8.40 110.82-12.29L110.82-12.29Q110.58-14.21 111.32-17.54Q112.07-20.88 112.02-22.42L112.02-22.42Q111.97-24.38 112.64-26.54Q113.32-28.70 114.71-29.71L114.71-29.71Q116.24-30.77 117.92-29.88Q119.60-28.99 119.75-27.17L119.75-27.17Q119.80-26.21 119.27-24.34L119.27-24.34Q118.79-22.85 117.56-19.56Q116.34-16.27 115.91-14.50L115.91-14.50Q115.48-12.86 115.50-11.81Q115.52-10.75 116.05-10.75L116.05-10.75Q117.83-10.75 121.28-14.74Q124.74-18.72 125.36-21.55L125.36-21.55Q125.70-23.04 126.13-23.57L126.13-23.57Q126.66-24.29 127.28-26.54L127.28-26.54Q128.05-29.04 130.07-31.20L130.07-31.20Q131.27-32.45 132.04-32.88L132.04-32.88Q132.76-33.31 133.86-33.31L133.86-33.31Q135.64-33.31 135.92-32.59L135.92-32.59Q136.16-32.11 135.95-30.98Q135.73-29.86 135.40-28.92Q135.06-27.98 134.65-26.86Q134.24-25.73 134.20-25.20L134.20-25.20Q134.05-24.34 133.91-24.00L133.91-24.00Q133.81-23.71 133.24-22.80L133.24-22.80Q132.28-21.26 131.60-19.18Q130.93-17.09 130.36-14.45Q129.78-11.81 129.35-10.51L129.35-10.51Q128.58-8.02 128.77-7.87L128.77-7.87Q128.87-7.73 131.41-8.86Q133.96-9.98 136.55-11.28Q139.14-12.58 139.52-12.86Z"></path></g></g></svg>